<svg width="330" height="330" viewBox="0 0 330 330" fill="none" xmlns="http://www.w3.org/2000/svg">
<path d="M171.014 208.13L167.424 210.831V215.322V231.091C167.424 232.647 166.162 233.909 164.606 233.909C163.05 233.909 161.788 232.647 161.788 231.091V215.322V210.831L158.198 208.13C155.572 206.154 153.909 203.048 153.909 199.576C153.909 193.685 158.716 188.879 164.606 188.879C170.496 188.879 175.303 193.685 175.303 199.576C175.303 203.048 173.64 206.154 171.014 208.13ZM164.606 311C219.537 311 264.212 266.325 264.212 211.394C264.212 186.878 255.302 164.396 240.576 147.037V108.97C240.576 67.072 206.504 33 164.606 33C122.708 33 88.6372 67.0722 88.6372 108.97V147.035C73.9101 164.396 65 186.878 65 211.394C65 266.325 109.675 311 164.606 311ZM130.274 108.97C130.274 90.0462 145.684 74.6364 164.606 74.6364C183.53 74.6364 198.939 90.0463 198.939 108.97V117.889C188.228 113.943 176.659 111.788 164.606 111.788C152.553 111.788 140.985 113.943 130.274 117.888V108.97Z" stroke="black" stroke-width="18"/>
<rect x="162" y="194" width="8" height="8" fill="black"/>
</svg>
